<svg width="36" height="36" viewBox="0 0 36 36" fill="none" xmlns="http://www.w3.org/2000/svg">
<g clip-path="url(#clip0_1092_201)">
<g clip-path="url(#clip1_1092_201)">
<path fill-rule="evenodd" clip-rule="evenodd" d="M17.4825 4.4835C17.4809 4.55135 17.4928 4.61884 17.5176 4.68201C17.5425 4.74518 17.5796 4.80276 17.627 4.85137C17.6744 4.89999 17.7309 4.93866 17.7934 4.96513C17.8559 4.99159 17.9231 5.00532 17.991 5.0055C18.1294 5.00511 18.2621 4.95003 18.3602 4.85227C18.4582 4.7545 18.5137 4.62196 18.5145 4.4835C18.6415 3.9915 18.741 3.4935 18.813 2.9895C18.828 2.7845 18.828 2.58 18.813 2.376C18.8363 2.17769 18.8363 1.97731 18.813 1.779C18.708 1.344 18.528 0.927 18.408 0.4485C18.4037 0.328831 18.3535 0.215412 18.2677 0.131865C18.1819 0.0483177 18.0672 0.00108358 17.9475 0C17.8286 0.000395437 17.7148 0.047775 17.6308 0.131799C17.5467 0.215824 17.4994 0.329672 17.499 0.4485C17.348 0.9385 17.2285 1.4365 17.1405 1.9425C17.1255 2.1465 17.1255 2.351 17.1405 2.556C17.1505 2.756 17.1755 2.955 17.2155 3.153C17.2605 3.543 17.3805 3.975 17.4855 4.4835M18.4095 31.383C18.4056 31.2626 18.3551 31.1483 18.2686 31.0644C18.1821 30.9804 18.0665 30.9333 17.946 30.933C17.8864 30.9311 17.8271 30.9415 17.7718 30.9634C17.7164 30.9854 17.6661 31.0185 17.6241 31.0607C17.582 31.1029 17.5491 31.1533 17.5273 31.2087C17.5055 31.2641 17.4954 31.3235 17.4975 31.383C17.3462 31.8728 17.2264 32.3719 17.139 32.877C17.124 33.081 17.124 33.285 17.139 33.489C17.149 33.69 17.174 33.8895 17.214 34.0875C17.214 34.536 17.409 34.9695 17.514 35.4765C17.5122 35.5443 17.5239 35.6119 17.5486 35.6751C17.5732 35.7384 17.6102 35.7961 17.6574 35.8448C17.7046 35.8936 17.7611 35.9324 17.8235 35.9591C17.886 35.9857 17.9531 35.9996 18.021 36C18.1569 35.9993 18.2872 35.9459 18.3846 35.8511C18.4819 35.7562 18.5387 35.6273 18.543 35.4915C18.671 34.9995 18.771 34.5015 18.843 33.9975C18.858 33.7935 18.858 33.589 18.843 33.384C18.865 33.1856 18.865 32.9854 18.843 32.787C18.708 32.2035 18.5295 31.785 18.4095 31.383ZM35.1915 18.1275C34.729 17.964 34.2539 17.8386 33.771 17.7525C33.5675 17.7316 33.3624 17.7316 33.159 17.7525C32.9602 17.7393 32.7607 17.7393 32.562 17.7525C32.112 17.7525 31.665 17.9475 31.1565 18.0375C31.0892 18.0336 31.0219 18.0435 30.9586 18.0665C30.8953 18.0896 30.8374 18.1253 30.7884 18.1715C30.7394 18.2177 30.7003 18.2734 30.6736 18.3352C30.6469 18.397 30.6331 18.4637 30.633 18.531C30.6296 18.6673 30.6794 18.7995 30.7718 18.8997C30.8642 18.9999 30.9919 19.0603 31.128 19.068C31.65 19.188 32.0985 19.308 32.6205 19.383C32.8245 19.398 33.029 19.398 33.234 19.383C33.433 19.406 33.632 19.406 33.831 19.383C34.307 19.283 34.7755 19.158 35.2365 19.008C35.2964 19.0098 35.3562 18.9996 35.4121 18.978C35.4681 18.9564 35.5192 18.9238 35.5623 18.8821C35.6055 18.8405 35.64 18.7906 35.6636 18.7355C35.6872 18.6803 35.6996 18.621 35.7 18.561C35.6984 18.4978 35.6836 18.4356 35.6564 18.3785C35.6292 18.3214 35.5902 18.2706 35.5421 18.2296C35.494 18.1885 35.4378 18.1581 35.3771 18.1403C35.3164 18.1224 35.2526 18.1175 35.19 18.126M2.55446 18.561C2.75746 18.576 2.96146 18.576 3.16646 18.561C3.65996 18.471 4.07846 18.306 4.55696 18.186C4.66159 18.1642 4.75554 18.1071 4.82298 18.0242C4.89042 17.9412 4.92723 17.8376 4.92723 17.7308C4.92723 17.6239 4.89042 17.5203 4.82298 17.4373C4.75554 17.3544 4.66159 17.2973 4.55696 17.2755C4.09279 17.1175 3.61813 16.9922 3.13646 16.9005C2.93299 16.8796 2.72792 16.8796 2.52446 16.9005H1.92596C1.47746 16.9755 1.02896 17.0955 0.536956 17.1855C0.452033 17.1855 0.368322 17.2057 0.292696 17.2443C0.217069 17.2829 0.151685 17.3389 0.10191 17.4078C0.0521342 17.4766 0.0193876 17.5562 0.00635813 17.6401C-0.00667139 17.724 0.000387738 17.8098 0.026956 17.8905C0.0617239 17.9859 0.124987 18.0683 0.208167 18.1265C0.291347 18.1847 0.390421 18.216 0.491956 18.216C1.01396 18.351 1.46246 18.471 1.98596 18.546L2.55446 18.561ZM28.2885 9.3105C28.7505 9.0405 29.154 8.8305 29.5575 8.5635C29.7225 8.4465 29.882 8.3215 30.036 8.1885C30.182 8.0505 30.3165 7.9015 30.4395 7.7415C30.753 7.3365 30.948 6.9345 31.2165 6.516C31.2994 6.42943 31.3457 6.31416 31.3457 6.19425C31.3457 6.07434 31.2994 5.95907 31.2165 5.8725C31.1757 5.82769 31.126 5.79189 31.0706 5.7674C31.0152 5.7429 30.9553 5.73025 30.8947 5.73025C30.8341 5.73025 30.7742 5.7429 30.7188 5.7674C30.6634 5.79189 30.6137 5.82769 30.573 5.8725C30.1263 6.07523 29.6925 6.30517 29.274 6.561C29.113 6.681 28.958 6.8105 28.809 6.9495C28.6676 7.09169 28.5334 7.24088 28.407 7.3965C28.122 7.7565 27.8835 8.145 27.57 8.5635C27.4756 8.65897 27.4227 8.78778 27.4227 8.922C27.4227 9.05622 27.4756 9.18503 27.57 9.2805C27.6633 9.37556 27.7894 9.43156 27.9225 9.43713C28.0557 9.4427 28.1875 9.39743 28.2885 9.3105ZM7.70846 26.541C7.26146 26.7795 6.84296 26.9595 6.40946 27.243C6.24446 27.36 6.08996 27.4895 5.94596 27.6315C5.80008 27.7704 5.66517 27.9203 5.54246 28.08C5.25746 28.4385 5.01896 28.827 4.70546 29.2305C4.61353 29.3302 4.5625 29.4609 4.5625 29.5965C4.5625 29.7321 4.61353 29.8628 4.70546 29.9625C4.80346 30.0578 4.93476 30.1111 5.07146 30.1111C5.20815 30.1111 5.33946 30.0578 5.43746 29.9625C5.8688 29.7412 6.2879 29.4969 6.69296 29.2305C6.87067 29.1182 7.03608 28.9874 7.18646 28.8405C7.31646 28.7015 7.43596 28.5525 7.54496 28.3935C7.85996 27.975 8.05346 27.5715 8.32196 27.153C8.36702 27.1131 8.4037 27.0646 8.42986 27.0104C8.45603 26.9561 8.47116 26.8973 8.47438 26.8371C8.4776 26.777 8.46884 26.7169 8.44861 26.6602C8.42839 26.6034 8.3971 26.5513 8.35656 26.5068C8.31602 26.4623 8.26704 26.4263 8.21247 26.4009C8.15789 26.3754 8.09881 26.3611 8.03865 26.3587C7.9785 26.3563 7.91846 26.3659 7.86203 26.3869C7.80561 26.4079 7.75391 26.4399 7.70996 26.481L7.70846 26.541ZM29.184 29.3805C29.0669 29.2104 28.9365 29.0499 28.794 28.9005L28.3635 28.5C28.0035 28.2 27.6165 27.9615 27.213 27.648C27.1198 27.5583 26.9966 27.5064 26.8673 27.5024C26.7381 27.4984 26.6119 27.5424 26.5133 27.6261C26.4147 27.7098 26.3506 27.8271 26.3336 27.9553C26.3165 28.0835 26.3477 28.2134 26.421 28.32C26.642 28.755 26.886 29.1785 27.153 29.5905C27.256 29.7705 27.381 29.935 27.528 30.084C27.656 30.238 27.8 30.3775 27.96 30.5025C28.3635 30.816 28.767 31.0095 29.1705 31.2945C29.2437 31.3819 29.3465 31.4394 29.4593 31.456C29.5722 31.4726 29.6872 31.4472 29.7825 31.3845C29.8253 31.3426 29.8594 31.2925 29.8826 31.2373C29.9059 31.182 29.9179 31.1227 29.9179 31.0627C29.9179 31.0028 29.9059 30.9435 29.8826 30.8882C29.8594 30.833 29.8253 30.7829 29.7825 30.741C29.6117 30.2761 29.4123 29.8222 29.1855 29.382M6.76796 6.426C6.88296 6.591 7.00796 6.7505 7.14296 6.9045C7.27096 7.0585 7.41496 7.198 7.57496 7.323C7.98596 7.613 8.41446 7.877 8.86046 8.115C8.90234 8.15763 8.9523 8.19149 9.00741 8.21461C9.06253 8.23772 9.12169 8.24963 9.18146 8.24963C9.24122 8.24963 9.30039 8.23772 9.3555 8.21461C9.41061 8.19149 9.46057 8.15763 9.50246 8.115C9.58542 8.02843 9.63174 7.91316 9.63174 7.79325C9.63174 7.67334 9.58542 7.55807 9.50246 7.4715C9.31379 7.03567 9.09941 6.61142 8.86046 6.201C8.63455 5.86993 8.35703 5.57722 8.03846 5.334C7.67846 5.0355 7.29146 4.797 6.88796 4.4835C6.84661 4.42707 6.79409 4.37975 6.73367 4.34448C6.67325 4.30922 6.60622 4.28676 6.53675 4.2785C6.46728 4.27025 6.39685 4.27638 6.32985 4.29651C6.26285 4.31663 6.2007 4.35033 6.14728 4.3955C6.09386 4.44067 6.0503 4.49635 6.01932 4.55908C5.98834 4.6218 5.97059 4.69023 5.96718 4.7601C5.96378 4.82998 5.97478 4.89981 5.99952 4.96525C6.02425 5.03069 6.06218 5.09035 6.11096 5.1405C6.30396 5.5818 6.52336 6.01107 6.76796 6.426ZM11.3115 3.318C11.3615 3.511 11.4265 3.7 11.5065 3.885C11.5935 4.065 11.6875 4.2445 11.7885 4.4235C11.8935 4.6035 12.3135 5.1705 12.582 5.604C12.6323 5.73212 12.7309 5.83534 12.8566 5.89145C12.9823 5.94756 13.125 5.95207 13.254 5.904C13.3792 5.85367 13.4803 5.757 13.5362 5.6341C13.592 5.51119 13.5984 5.37148 13.554 5.244C13.464 4.722 13.419 4.2585 13.299 3.7515C13.2106 3.35562 13.0586 2.9767 12.849 2.6295C12.567 2.1975 12.252 1.8675 11.9685 1.479C11.9244 1.36459 11.837 1.27219 11.7252 1.2219C11.6134 1.17162 11.4863 1.16752 11.3715 1.2105C11.2619 1.26001 11.1749 1.34881 11.1277 1.45935C11.0805 1.5699 11.0765 1.69413 11.1165 1.8075C11.1505 2.3145 11.2155 2.818 11.3115 3.318ZM24.6405 32.5035C24.5944 32.3001 24.5343 32.1001 24.4605 31.905C24.372 31.725 24.282 31.5315 24.177 31.368C23.9085 30.933 23.595 30.6195 23.2965 30.2175C23.2667 30.1326 23.2113 30.059 23.138 30.0069C23.0646 29.9548 22.9769 29.9267 22.887 29.9265C22.826 29.9265 22.768 29.9385 22.713 29.9625C22.6579 29.984 22.6076 30.0162 22.565 30.0572C22.5223 30.0982 22.4882 30.1472 22.4645 30.2014C22.4408 30.2556 22.4281 30.3139 22.4269 30.373C22.4258 30.4322 22.4363 30.4909 22.458 30.546C22.494 31.048 22.559 31.546 22.653 32.04C22.7046 32.2382 22.7698 32.4327 22.848 32.622C22.93 32.802 23.025 32.977 23.133 33.147C23.3715 33.549 23.64 33.9075 23.9235 34.326C23.9533 34.4043 24.0018 34.4741 24.0649 34.5292C24.1279 34.5844 24.2035 34.6233 24.285 34.6426C24.3666 34.6618 24.4516 34.6608 24.5326 34.6396C24.6137 34.6184 24.6883 34.5777 24.75 34.521C24.8242 34.4521 24.8763 34.3627 24.8995 34.2641C24.9228 34.1656 24.9161 34.0623 24.8805 33.9675C24.8055 33.4155 24.7455 32.952 24.6405 32.5035ZM30.036 13.3455C30.0837 13.4725 30.1788 13.5762 30.3013 13.6346C30.4238 13.6931 30.5642 13.7018 30.693 13.659C31.2165 13.584 31.68 13.539 32.187 13.434C32.3844 13.3839 32.5791 13.3239 32.7705 13.254C32.9635 13.183 33.148 13.094 33.324 12.987C33.7575 12.717 34.086 12.4035 34.4895 12.12C34.5603 12.0947 34.6237 12.0521 34.6739 11.996C34.724 11.9398 34.7593 11.872 34.7764 11.7988C34.7936 11.7255 34.7921 11.6491 34.7721 11.5765C34.7521 11.504 34.7142 11.4376 34.662 11.3835C34.5991 11.3171 34.518 11.2708 34.4289 11.2502C34.3398 11.2297 34.2466 11.2359 34.161 11.268C33.666 11.268 33.204 11.268 32.6655 11.448C32.4695 11.492 32.2805 11.5565 32.0985 11.6415L31.545 11.9565C31.1415 12.18 30.783 12.4635 30.3495 12.732C30.2317 12.779 30.135 12.867 30.0771 12.9798C30.0192 13.0925 30.0056 13.2224 30.036 13.3455ZM5.87096 22.416C5.82722 22.3013 5.73992 22.2086 5.62809 22.158C5.51625 22.1074 5.38896 22.1031 5.27396 22.146C4.7725 22.1697 4.27301 22.2248 3.77846 22.311C3.58533 22.3633 3.39591 22.4285 3.21146 22.506L2.67296 22.776C2.26946 23.0145 1.91096 23.283 1.47746 23.5515C1.39815 23.5808 1.32714 23.6288 1.27053 23.6916C1.21391 23.7544 1.17339 23.83 1.15244 23.9118C1.13148 23.9937 1.13073 24.0795 1.15025 24.1617C1.16976 24.244 1.20895 24.3203 1.26446 24.384C1.33252 24.4604 1.42199 24.5145 1.52123 24.5394C1.62047 24.5643 1.72491 24.5588 1.82096 24.5235C2.34446 24.4485 2.80796 24.4035 3.31646 24.2985C3.51646 24.2565 3.71046 24.1965 3.89846 24.1185C4.06346 24.0625 4.22296 23.993 4.37696 23.91C4.81046 23.655 5.13896 23.343 5.54246 23.058C5.61162 23.0465 5.67713 23.0189 5.73377 22.9776C5.7904 22.9362 5.83659 22.8822 5.86864 22.8199C5.9007 22.7575 5.91774 22.6885 5.9184 22.6184C5.91906 22.5483 5.90183 22.479 5.87096 22.416ZM23.6985 6.351C23.7584 6.38173 23.8238 6.40028 23.8909 6.4056C23.9581 6.41091 24.0256 6.40288 24.0896 6.38196C24.1536 6.36104 24.2128 6.32765 24.2639 6.28372C24.3149 6.23979 24.3567 6.18618 24.387 6.126C24.732 5.709 25.029 5.3655 25.299 4.977C25.413 4.818 25.5175 4.653 25.6125 4.482C25.7045 4.302 25.7745 4.113 25.8225 3.915C25.956 3.4215 25.986 2.9745 26.091 2.496C26.1457 2.43058 26.1814 2.35135 26.1942 2.26699C26.2069 2.18264 26.1962 2.0964 26.1632 2.01772C26.1302 1.93904 26.0762 1.87095 26.0071 1.82091C25.938 1.77087 25.8565 1.7408 25.7715 1.734C25.6692 1.72684 25.5673 1.75369 25.4819 1.81039C25.3964 1.86709 25.3321 1.95045 25.299 2.0475C24.9624 2.40148 24.6479 2.77568 24.357 3.168C24.2387 3.33672 24.1382 3.51718 24.057 3.7065C24.057 3.8865 23.9085 4.08 23.8485 4.2735C23.7135 4.7085 23.6385 5.1555 23.505 5.649C23.4403 5.7685 23.4245 5.90842 23.4609 6.03933C23.4972 6.17025 23.5829 6.28196 23.7 6.351M12.2085 29.499C12.101 29.4474 11.9775 29.4406 11.865 29.4799C11.7525 29.5193 11.6603 29.6017 11.6085 29.709C11.2668 30.0674 10.9477 30.4466 10.653 30.8445C10.5383 31.0151 10.4384 31.1953 10.3545 31.383C10.3545 31.563 10.2045 31.7565 10.1445 31.95C10.0095 32.385 9.93596 32.832 9.80096 33.3255C9.76235 33.3869 9.73691 33.4556 9.72624 33.5273C9.71558 33.599 9.71993 33.6721 9.73901 33.7421C9.75809 33.812 9.79149 33.8772 9.83709 33.9336C9.8827 33.9899 9.93951 34.0362 10.0039 34.0695C10.0684 34.1027 10.139 34.1222 10.2113 34.1268C10.2837 34.1313 10.3562 34.1207 10.4243 34.0958C10.4923 34.0708 10.5545 34.032 10.6067 33.9818C10.659 33.9316 10.7003 33.871 10.728 33.804C11.058 33.399 11.3565 33.0405 11.625 32.652C11.74 32.485 11.845 32.311 11.94 32.13C12.026 31.947 12.0955 31.7575 12.1485 31.5615C12.2685 31.0695 12.358 30.5715 12.417 30.0675C12.4557 29.9633 12.4558 29.8486 12.4173 29.7443C12.3788 29.64 12.3056 29.553 12.2085 29.499ZM33.7275 25.4055C33.3734 25.0638 32.9987 24.7442 32.6055 24.4485C32.4457 24.3256 32.2701 24.2247 32.0835 24.1485C31.9055 24.0588 31.7203 23.984 31.53 23.925C31.0815 23.79 30.633 23.7 30.141 23.5665C30.0218 23.5033 29.8824 23.4899 29.7533 23.5293C29.6243 23.5687 29.5161 23.6575 29.4525 23.7765C29.389 23.8978 29.3755 24.0391 29.4147 24.1702C29.454 24.3013 29.5429 24.412 29.6625 24.4785C30.066 24.807 30.4095 25.1205 30.798 25.3905C30.966 25.5055 31.1405 25.61 31.3215 25.704C31.5055 25.796 31.6945 25.876 31.8885 25.944C32.382 26.0775 32.8305 26.1075 33.309 26.226C33.4183 26.2773 33.5433 26.2841 33.6575 26.2449C33.7717 26.2057 33.8662 26.1236 33.921 26.016C33.9487 25.9632 33.9656 25.9054 33.9708 25.846C33.976 25.7866 33.9693 25.7268 33.9512 25.67C33.933 25.6132 33.9038 25.5605 33.8651 25.5151C33.8264 25.4697 33.7791 25.4325 33.726 25.4055M2.19446 10.461C2.59946 10.7895 2.94296 11.103 3.33146 11.373C3.49846 11.488 3.67246 11.5925 3.85346 11.6865C4.01846 11.7915 4.19296 11.8815 4.37696 11.9565C4.87046 12.09 5.31896 12.135 5.87096 12.2385C5.98598 12.2766 6.11133 12.2683 6.22031 12.2153C6.32929 12.1624 6.4133 12.069 6.45446 11.955C6.4824 11.9021 6.49953 11.8442 6.50484 11.7847C6.51015 11.7251 6.50354 11.6651 6.48538 11.6081C6.46723 11.5511 6.4379 11.4983 6.39911 11.4528C6.36031 11.4073 6.31284 11.37 6.25946 11.343C5.90377 11.027 5.52961 10.7325 5.13896 10.461C4.97872 10.338 4.80263 10.237 4.61546 10.161C4.43453 10.0674 4.24455 9.99256 4.04846 9.9375C3.61346 9.8025 3.16646 9.7125 2.67296 9.579C2.5539 9.5163 2.41489 9.50318 2.28621 9.54252C2.15753 9.58185 2.0496 9.67045 1.98596 9.789C1.93149 9.90713 1.92282 10.0413 1.96162 10.1654C2.00041 10.2896 2.08392 10.3949 2.19596 10.461" fill="#E7D18A"/>
<path d="M28.7354 14.809C28.5384 14.048 28.2744 13.311 27.9434 12.598C27.6171 11.8677 27.1949 11.1842 26.6879 10.5655C26.6173 10.4922 26.5262 10.4418 26.4265 10.4209C26.3269 10.3999 26.2233 10.4094 26.129 10.448C26.0348 10.4866 25.9544 10.5527 25.8981 10.6375C25.8418 10.7224 25.8123 10.8222 25.8134 10.924C25.8134 11.0575 25.8644 11.185 25.9559 11.2825C26.3879 11.8405 26.7449 12.454 27.0164 13.105C27.3014 13.763 27.5259 14.4405 27.6899 15.1375C28.1616 17.0133 28.0717 18.9864 27.4314 20.8115C26.7911 22.6367 25.6286 24.2335 24.0884 25.4035C23.4857 25.8672 22.8403 26.2725 22.1609 26.614C20.5638 27.4354 18.7706 27.799 16.9797 27.6645C15.1888 27.53 13.47 26.9027 12.0134 25.852C11.2266 25.3034 10.5689 24.5898 10.0859 23.761C8.61769 21.4442 8.08322 18.6566 8.59044 15.961C8.88114 14.5998 9.44073 13.3103 10.2364 12.1682C11.032 11.0261 12.0478 10.0544 13.2239 9.31003C14.9742 8.25471 17.0166 7.78838 19.0514 7.97953C21.1184 8.19924 23.0943 8.94552 24.7904 10.147C24.8911 10.2133 25.013 10.2393 25.1319 10.2199C25.2509 10.2004 25.3582 10.1369 25.4324 10.042C25.4654 9.99208 25.4882 9.93606 25.4992 9.87723C25.5103 9.8184 25.5096 9.75795 25.497 9.69942C25.4844 9.64089 25.4603 9.58545 25.426 9.53636C25.3918 9.48727 25.348 9.44551 25.2974 9.41353C23.4947 8.06019 21.3753 7.19108 19.1414 6.88903C16.8572 6.58016 14.5344 7.02072 12.5219 8.14453C11.1391 8.94858 9.93432 10.0256 8.98096 11.3101C8.0276 12.5946 7.34559 14.0596 6.97644 15.616C6.42666 17.6859 6.49826 19.8717 7.18229 21.9012C7.86633 23.9306 9.13255 25.7138 10.8231 27.0285C12.5137 28.3432 14.5538 29.1313 16.6892 29.2944C18.8246 29.4576 20.9608 28.9886 22.8314 27.946C25.2066 26.8041 27.1018 24.8594 28.1821 22.4555C29.2624 20.0517 29.4584 17.3434 28.7354 14.809Z" fill="#E7D18A"/>
<path d="M12.4019 23.6996C12.5969 23.1926 12.6719 23.0726 12.8654 22.6106C13.1429 21.9191 13.5314 21.2786 14.0159 20.7116C14.4884 20.2016 15.0374 19.7666 15.6449 19.4261C17.0159 20.0321 18.5549 20.1311 19.9934 19.7111C20.4644 19.5656 20.9129 19.3541 21.3239 19.0826C21.8009 19.5521 22.1819 20.1101 22.4444 20.7266L22.7444 21.4286L23.1914 22.4906C23.4614 23.1176 23.5064 23.3576 23.7149 23.7911C23.7709 23.9241 23.8642 24.0382 23.9834 24.1196C24.2984 24.2996 24.8054 24.2246 25.0289 23.5811C25.1144 23.2061 25.0829 22.8161 24.9389 22.4606C24.8627 22.0649 24.7425 21.679 24.5804 21.3101C24.4336 20.9256 24.2434 20.5593 24.0134 20.2181C23.5096 19.4839 22.8387 18.8798 22.0559 18.4556C22.8192 17.649 23.2374 16.5764 23.2214 15.4661C23.2705 14.6703 23.1843 13.872 22.9664 13.1051C22.7754 12.5836 22.481 12.106 22.1009 11.7011C22.0547 11.6523 21.999 11.6134 21.9372 11.5868C21.8754 11.5603 21.8089 11.5466 21.7417 11.5466C21.6744 11.5466 21.6079 11.5603 21.5461 11.5868C21.4844 11.6134 21.4287 11.6523 21.3824 11.7011C21.2774 11.7862 21.2106 11.9096 21.1965 12.044C21.1825 12.1785 21.2223 12.313 21.3074 12.4181C21.6434 12.8156 21.8654 13.2956 21.9524 13.8071C22.0259 14.3621 22.0259 14.9261 21.9524 15.4811C21.9197 16.1445 21.6667 16.7781 21.2334 17.2815C20.8 17.785 20.2111 18.1295 19.5599 18.2606C18.8951 18.4301 18.2016 18.4552 17.5263 18.3341C16.8509 18.213 16.2094 17.9486 15.6449 17.5586C15.2958 17.2905 15.0397 16.9195 14.9129 16.4981C14.7408 16.0195 14.6842 15.5071 14.7479 15.0026C14.8126 14.2691 15.0535 13.562 15.4499 12.9416C15.863 12.3457 16.4624 11.9041 17.1539 11.6861C17.7115 11.5121 18.2893 11.4113 18.8729 11.3861C19.4485 11.3592 20.0234 11.4512 20.5619 11.6561C20.6159 11.6806 20.6741 11.6943 20.7334 11.6963C20.7926 11.6983 20.8517 11.6885 20.9072 11.6676C20.9627 11.6467 21.0135 11.6151 21.0567 11.5745C21.0999 11.5339 21.1346 11.4851 21.1589 11.4311C21.1988 11.349 21.2119 11.2564 21.1962 11.1665C21.1806 11.0766 21.1371 10.9939 21.0719 10.9301C21.0284 10.8882 20.9768 10.8556 20.9204 10.8341C20.2858 10.5267 19.5928 10.3584 18.8879 10.3406C18.2031 10.2866 17.5142 10.327 16.8404 10.4606C15.8497 10.6592 14.9547 11.1854 14.2994 11.9546C13.6945 12.7425 13.2894 13.6654 13.1189 14.6441C13.0169 15.3941 13.0934 16.1576 13.3439 16.8716C13.5509 17.5526 13.9439 18.1631 14.4794 18.6341C13.6789 18.9777 12.9606 19.4874 12.3719 20.1296C11.9217 20.6452 11.5768 21.244 11.3564 21.8921C11.1755 22.3998 11.094 22.9375 11.1164 23.4761V23.8061C11.1164 23.9261 11.8484 25.2236 12.4019 23.6996Z" fill="#E7D18A"/>
</g>
</g>
<defs>
<clipPath id="clip0_1092_201">
<rect width="36" height="36" fill="white"/>
</clipPath>
<clipPath id="clip1_1092_201">
<rect width="36" height="36" fill="white"/>
</clipPath>
</defs>
</svg>
