<svg width="36" height="36" viewBox="0 0 36 36" fill="none" xmlns="http://www.w3.org/2000/svg">
<path d="M14.8 12.8C20.7652 12.8 25.6 10.3826 25.6 7.4C25.6 4.4174 20.7652 2 14.8 2C8.8348 2 4 4.4174 4 7.4C4 10.3826 8.8348 12.8 14.8 12.8ZM23.242 12.8288C24.088 12.4058 24.9106 11.8676 25.6 11.216V16.5962C24.326 16.6962 23.13 17.2492 22.2286 18.155L21.1486 19.235C20.7927 19.5911 20.5163 20.0186 20.3376 20.4892C20.1589 20.9599 20.082 21.463 20.1118 21.9656L19.8976 21.9584C18.9524 21.9585 18.0459 22.334 17.3776 23.0024L16.2976 24.0824C15.6287 24.7516 15.148 25.5854 14.904 26.4996C14.66 27.4139 14.6614 28.3763 14.908 29.2898L13.54 30.665L13.45 30.7586C8.122 30.4256 4 28.154 4 25.4V11.216C4.6894 11.8676 5.512 12.4058 6.358 12.8288C8.6116 13.9556 11.5996 14.6 14.8 14.6C18.0004 14.6 20.9884 13.9556 23.242 12.8288ZM31.3564 17.9372C31.4401 17.8536 31.5065 17.7544 31.5518 17.6452C31.5971 17.536 31.6205 17.4189 31.6206 17.3006C31.6207 17.1824 31.5975 17.0653 31.5523 16.956C31.5071 16.8467 31.4409 16.7474 31.3573 16.6637C31.2737 16.58 31.1745 16.5136 31.0653 16.4683C30.9561 16.423 30.839 16.3996 30.7207 16.3995C30.6025 16.3994 30.4854 16.4226 30.3761 16.4678C30.2668 16.513 30.1675 16.5792 30.0838 16.6628L27.949 18.7976L27.886 18.893C27.199 18.483 26.395 18.3135 25.601 18.4113C24.807 18.5091 24.0682 18.8686 23.5012 19.433L22.4212 20.513C22.2574 20.6768 22.1274 20.8713 22.0388 21.0853C21.9501 21.2993 21.9045 21.5287 21.9045 21.7604C21.9045 21.9921 21.9501 22.2215 22.0388 22.4355C22.1274 22.6495 22.2574 22.844 22.4212 23.0078L25.0168 25.598C25.1806 25.7621 25.3752 25.8923 25.5894 25.9811C25.8036 26.0699 26.0332 26.1156 26.2651 26.1156C26.497 26.1156 26.7266 26.0699 26.9408 25.9811C27.155 25.8923 27.3496 25.7621 27.5134 25.598L28.5934 24.518C29.1583 23.9509 29.518 23.2117 29.6158 22.4173C29.7136 21.6229 29.5438 20.8186 29.1334 20.1314C29.1668 20.113 29.1987 20.0919 29.2288 20.0684L31.3564 17.9372ZM21.1486 24.275C20.9848 24.1112 20.7903 23.9812 20.5763 23.8926C20.3623 23.8039 20.1329 23.7583 19.9012 23.7583C19.6695 23.7583 19.4401 23.8039 19.2261 23.8926C19.0121 23.9812 18.8176 24.1112 18.6538 24.275L17.5738 25.355C17.0089 25.9221 16.6492 26.6613 16.5514 27.4557C16.4536 28.2501 16.6234 29.0544 17.0338 29.7416C17.0004 29.76 16.9685 29.7811 16.9384 29.8046L14.8108 31.9376C14.6469 32.1073 14.5561 32.3347 14.5582 32.5707C14.5602 32.8066 14.6549 33.0324 14.8218 33.1992C14.9886 33.3661 15.2144 33.4608 15.4503 33.4628C15.6863 33.4649 15.9137 33.3741 16.0834 33.2102L18.2164 31.0754L18.2812 30.98C18.9682 31.39 19.7722 31.5595 20.5662 31.4617C21.3602 31.3639 22.099 31.0044 22.666 30.44L23.746 29.36C23.9101 29.1962 24.0403 29.0016 24.1291 28.7874C24.2179 28.5732 24.2636 28.3436 24.2636 28.1117C24.2636 27.8798 24.2179 27.6502 24.1291 27.436C24.0403 27.2218 23.9101 27.0272 23.746 26.8634L21.1486 24.275Z" fill="#8FAA8C"/>
</svg>
