<svg width="36" height="36" viewBox="0 0 36 36" fill="none" xmlns="http://www.w3.org/2000/svg">
<path d="M3 19.5V18.375C3 17.4799 3.35558 16.6215 3.98851 15.9885C4.62145 15.3556 5.47989 15 6.375 15H28.875C29.7701 15 30.6285 15.3556 31.2615 15.9885C31.8944 16.6215 32.25 17.4799 32.25 18.375V19.5M19.215 9.84L16.035 6.66C15.8261 6.45083 15.578 6.28488 15.3049 6.17163C15.0318 6.05838 14.7391 6.00006 14.4435 6H6.375C5.47989 6 4.62145 6.35558 3.98851 6.98851C3.35558 7.62145 3 8.47989 3 9.375V27.375C3 28.2701 3.35558 29.1285 3.98851 29.7615C4.62145 30.3944 5.47989 30.75 6.375 30.75H28.875C29.7701 30.75 30.6285 30.3944 31.2615 29.7615C31.8944 29.1285 32.25 28.2701 32.25 27.375V13.875C32.25 12.9799 31.8944 12.1215 31.2615 11.4885C30.6285 10.8556 29.7701 10.5 28.875 10.5H20.8065C20.21 10.4995 19.6366 10.2621 19.215 9.84Z" stroke="#E6E6E6" stroke-width="2.25" stroke-linecap="round" stroke-linejoin="round"/>
</svg>
