<svg width="36" height="36" viewBox="0 0 36 36" fill="none" xmlns="http://www.w3.org/2000/svg">
<path d="M13.6755 3H21.5745C23.2125 3 24.5115 3 25.557 3.0855C26.628 3.1725 27.5325 3.3555 28.3605 3.7755C29.701 4.45927 30.7905 5.54988 31.473 6.891C31.8945 7.716 32.0775 8.622 32.1645 9.693C32.25 10.7385 32.25 12.0375 32.25 13.6755V21.5745C32.25 23.2125 32.25 24.5115 32.1645 25.557C32.0775 26.628 31.8945 27.5325 31.4745 28.3605C30.7911 29.7007 29.7011 30.7903 28.3605 31.473C27.5325 31.8945 26.628 32.0775 25.557 32.1645C24.5115 32.25 23.2125 32.25 21.5745 32.25H13.6755C12.0375 32.25 10.7385 32.25 9.693 32.1645C8.622 32.0775 7.7175 31.8945 6.891 31.4745C5.55021 30.7914 4.46012 29.7013 3.777 28.3605C3.3555 27.5325 3.1725 26.628 3.0855 25.557C3 24.5115 3 23.2125 3 21.5745V13.6755C3 12.0375 3 10.7385 3.0855 9.693C3.1725 8.622 3.3555 7.7175 3.7755 6.891C4.45901 5.54998 5.54965 4.45987 6.891 3.777C7.716 3.3555 8.622 3.1725 9.693 3.0855C10.7385 3 12.0375 3 13.6755 3ZM9.876 5.328C8.946 5.403 8.3685 5.5485 7.911 5.781C6.99395 6.24834 6.24834 6.99395 5.781 7.911C5.5485 8.3685 5.4045 8.946 5.328 9.876C5.2515 10.821 5.25 12.027 5.25 13.725V21.525C5.25 23.2245 5.25 24.4305 5.328 25.374C5.403 26.304 5.5485 26.8815 5.781 27.339C6.24834 28.2561 6.99395 29.0017 7.911 29.469C8.3685 29.7015 8.946 29.8455 9.876 29.922C10.464 29.97 11.1525 29.988 12 29.997V5.253C11.1525 5.2605 10.464 5.28 9.876 5.328Z" fill="#E6E6E6"/>
</svg>
