<svg width="36" height="36" viewBox="0 0 36 36" fill="none" xmlns="http://www.w3.org/2000/svg">
<path d="M5.16964 26.9129L16.9969 33.6327C17.8712 34.1303 18.6844 34.1451 19.5889 33.6327L31.4162 26.9129C32.8176 26.1145 33.5859 25.3007 33.5859 23.1162V11.1829C33.5859 9.5108 32.9231 8.5613 31.6875 7.85287L21.0354 1.79651C19.182 0.726796 17.3736 0.742225 15.5505 1.79651L4.89836 7.85351C3.66279 8.5613 3 9.5108 3 11.1835V23.1162C3 25.3007 3.76821 26.1145 5.16964 26.9129ZM18.2929 16.1708L6.8115 9.67665L16.6202 4.07094C17.7658 3.42358 18.7899 3.4088 19.9656 4.07094L29.7737 9.67665L18.2929 16.1708ZM6.5865 24.8031C5.727 24.3209 5.44093 23.8536 5.44093 23.0404V11.8007L17.0271 18.4157V30.7399L6.5865 24.8031ZM30 24.8031L19.5587 30.7392V18.415L31.1449 11.8007V23.0417C31.1449 23.8549 30.8589 24.3222 30 24.8044" fill="#E6E6E6"/>
</svg>
