<svg width="101" height="31" viewBox="0 0 101 31" fill="none" xmlns="http://www.w3.org/2000/svg">
<g clip-path="url(#clip0_1112_266)">
<path d="M10.28 27.8C9.45333 29.8 7.72 30.8 5.08 30.8C3.72 30.8 2.61333 30.3333 1.76 29.4C1.04 28.5733 0.68 27.7467 0.68 26.92C0.68 24.76 1.17333 21.5733 2.16 17.36L3.64 9.6L11.76 8.8L9.32 21.44C8.86667 23.4133 8.64 24.7467 8.64 25.44C8.64 26.96 9.18667 27.7467 10.28 27.8ZM4.36 4.04C4.36 3 4.78667 2.2 5.64 1.64C6.52 1.08 7.58667 0.799999 8.84 0.799999C10.0933 0.799999 11.0933 1.08 11.84 1.64C12.6133 2.2 13 3 13 4.04C13 5.08 12.5733 5.86667 11.72 6.4C10.8933 6.93333 9.85333 7.2 8.6 7.2C7.34667 7.2 6.32 6.93333 5.52 6.4C4.74667 5.86667 4.36 5.08 4.36 4.04ZM33.3278 3.32C39.8611 3.32 43.1278 5.62666 43.1278 10.24C43.1278 12.7733 42.3145 14.8 40.6878 16.32C39.0878 17.84 36.8878 18.6 34.0878 18.6C32.7811 18.6 31.6211 18.2267 30.6078 17.48C30.1278 17.16 29.7278 16.7867 29.4078 16.36C31.3545 16.36 32.8345 15.7733 33.8478 14.6C34.8878 13.4 35.4078 11.64 35.4078 9.32C35.4078 7 34.2611 5.84 31.9678 5.84H31.0078C30.8478 5.84 30.7011 5.85333 30.5678 5.88L25.9678 30H17.2878L22.2078 3.8C25.0611 3.53333 27.3145 3.38667 28.9678 3.36C30.6211 3.33333 32.0745 3.32 33.3278 3.32ZM49.0328 28.8C48.4195 28.1067 47.9661 27.2133 47.6728 26.12C47.4061 25.0267 47.2728 23.5867 47.2728 21.8C47.2728 20.0133 47.5795 18.3067 48.1928 16.68C48.8061 15.0533 49.6728 13.6533 50.7928 12.48C53.0861 10.0267 56.1261 8.8 59.9128 8.8C61.2728 8.8 62.4461 9.02667 63.4328 9.48L70.2728 8.8L67.3128 24.4C67.2328 24.72 67.1928 25.1733 67.1928 25.76C67.1928 26.3467 67.3661 26.8267 67.7128 27.2C68.0861 27.5733 68.5395 27.7867 69.0728 27.84C68.8061 28.7467 68.1795 29.4667 67.1928 30C66.2328 30.5333 65.2061 30.8 64.1128 30.8C63.0195 30.8 62.0995 30.5867 61.3528 30.16C60.6328 29.76 60.1661 29.2133 59.9528 28.52C59.5261 29.1867 58.8595 29.7333 57.9528 30.16C57.0461 30.5867 55.9795 30.8 54.7528 30.8C53.5528 30.8 52.4595 30.64 51.4728 30.32C50.4861 30 49.6728 29.4933 49.0328 28.8ZM57.4728 12.56C57.1795 13.04 56.8995 13.6933 56.6328 14.52C56.3661 15.32 56.0061 16.8133 55.5528 19C55.1261 21.16 54.9128 23.0133 54.9128 24.56C54.9128 26.1067 55.0328 27.1067 55.2728 27.56C55.5128 28.0133 55.8461 28.24 56.2728 28.24C57.1261 28.24 57.8595 27.84 58.4728 27.04C59.1128 26.2133 59.5528 25.08 59.7928 23.64L61.9128 11.92C61.3528 11.44 60.7395 11.2 60.0728 11.2C59.4328 11.2 58.9128 11.3067 58.5128 11.52C58.1395 11.7333 57.7928 12.08 57.4728 12.56ZM93.35 30.8C90.1233 30.8 88.51 29.5467 88.51 27.04C88.5367 26.3467 88.6567 25.4133 88.87 24.24L89.59 20.56C90.31 17.0933 90.67 14.9733 90.67 14.2C90.67 12.6533 90.2167 11.88 89.31 11.88C87.79 11.88 86.63 13.8667 85.83 17.84L83.47 30L75.43 30.8L79.59 9.56L86.15 8.8L85.51 12.72C86.7633 10.1067 89.31 8.8 93.15 8.8C95.0167 8.8 96.3367 9.2 97.11 10C97.91 10.7733 98.31 12.04 98.31 13.8C98.31 15.4533 97.8833 18.2133 97.03 22.08C96.63 23.8133 96.43 25.0133 96.43 25.68C96.43 26.32 96.6033 26.8267 96.95 27.2C97.3233 27.5733 97.7767 27.7867 98.31 27.84C98.0433 28.7467 97.4433 29.4667 96.51 30C95.6033 30.5333 94.55 30.8 93.35 30.8Z" fill="#E5E5E5"/>
</g>
<defs>
<clipPath id="clip0_1112_266">
<rect width="101" height="31" fill="white"/>
</clipPath>
</defs>
</svg>
