<svg width="36" height="36" viewBox="0 0 36 36" fill="none" xmlns="http://www.w3.org/2000/svg">
<path fill-rule="evenodd" clip-rule="evenodd" d="M16.2219 4.375H19.8242C19.9435 4.375 20.058 4.42241 20.1424 4.5068C20.2268 4.59119 20.2742 4.70565 20.2742 4.825C20.2742 8.893 24.6797 11.4378 28.2032 9.4015C28.306 9.34335 28.4276 9.32798 28.5417 9.35871C28.6558 9.38944 28.7532 9.46381 28.8129 9.56575L30.6174 12.6888C30.6763 12.7918 30.692 12.9139 30.6613 13.0286C30.6305 13.1432 30.5557 13.241 30.4532 13.3008C26.9297 15.3347 26.9297 20.4198 30.4532 22.456C30.5551 22.5157 30.6295 22.6131 30.6602 22.7272C30.6909 22.8413 30.6756 22.9629 30.6174 23.0658L28.8129 26.1887C28.7532 26.2907 28.6558 26.3651 28.5417 26.3958C28.4276 26.4265 28.306 26.4111 28.2032 26.353C24.6797 24.3167 20.2742 26.8593 20.2742 30.925C20.2742 31.044 20.2271 31.1581 20.1432 31.2424C20.0593 31.3267 19.9454 31.3744 19.8264 31.375H16.2242C16.1048 31.375 15.9904 31.3276 15.906 31.2432C15.8216 31.1588 15.7742 31.0443 15.7742 30.925C15.7742 26.857 11.3687 24.3145 7.84517 26.3485C7.74211 26.4074 7.61998 26.4231 7.50536 26.3924C7.39073 26.3616 7.2929 26.2868 7.23317 26.1842L5.43317 23.0613C5.37483 22.9587 5.35911 22.8373 5.38942 22.7232C5.41972 22.6092 5.49361 22.5116 5.59517 22.4515C9.11867 20.4153 9.11867 15.3303 5.59517 13.294C5.49382 13.2343 5.41989 13.1373 5.38919 13.0237C5.35849 12.9102 5.37347 12.7891 5.43092 12.6865L7.23317 9.56125C7.29328 9.45908 7.39127 9.38476 7.50586 9.35443C7.62045 9.3241 7.74238 9.3402 7.84517 9.39925C11.3687 11.4355 15.7742 8.89075 15.7742 4.82275C15.7742 4.57525 15.9744 4.375 16.2219 4.375ZM12.3992 4.825C12.3992 2.71 14.1092 1 16.2219 1H19.8242C21.9392 1 23.6492 2.71 23.6492 4.825C23.6498 5.16017 23.7386 5.48928 23.9065 5.77935C24.0744 6.06942 24.3156 6.31027 24.6059 6.47776C24.8963 6.64525 25.2255 6.73351 25.5607 6.73368C25.8958 6.73385 26.2252 6.64594 26.5157 6.47875C27.3937 5.97308 28.4365 5.83644 29.4151 6.09882C30.3938 6.3612 31.2284 7.00117 31.7357 7.87825L33.5402 11.0013C34.5954 12.8305 33.9677 15.166 32.1407 16.2212C31.8501 16.3891 31.6087 16.6306 31.441 16.9212C31.2732 17.2119 31.1849 17.5416 31.1849 17.8773C31.1849 18.2129 31.2732 18.5426 31.441 18.8333C31.6087 19.1239 31.8501 19.3654 32.1407 19.5333C33.0177 20.0406 33.6577 20.8751 33.9201 21.8538C34.1825 22.8324 34.0458 23.8752 33.5402 24.7533L31.7357 27.8762C31.2284 28.7533 30.3938 29.3933 29.4151 29.6557C28.4365 29.9181 27.3937 29.7814 26.5157 29.2758C26.2252 29.1086 25.8958 29.0206 25.5607 29.0208C25.2255 29.021 24.8963 29.1092 24.6059 29.2767C24.3156 29.4442 24.0744 29.6851 23.9065 29.9752C23.7386 30.2652 23.6498 30.5943 23.6492 30.9295C23.6492 33.0423 21.9392 34.7545 19.8264 34.7545H16.2242C15.2101 34.7539 14.2378 34.3506 13.5209 33.6334C12.8041 32.9161 12.4014 31.9436 12.4014 30.9295C12.4007 30.5943 12.312 30.2652 12.1441 29.9752C11.9762 29.6851 11.735 29.4442 11.4446 29.2767C11.1543 29.1092 10.8251 29.021 10.4899 29.0208C10.1547 29.0206 9.82541 29.1086 9.53492 29.2758C8.6569 29.7814 7.61411 29.9181 6.63545 29.6557C5.65679 29.3933 4.82222 28.7533 4.31492 27.8762L2.51042 24.7533C2.00474 23.8752 1.8681 22.8324 2.13049 21.8538C2.39287 20.8751 3.03284 20.0406 3.90992 19.5333C4.2 19.3652 4.44081 19.1239 4.60822 18.8334C4.77563 18.543 4.86375 18.2136 4.86375 17.8784C4.86375 17.5431 4.77563 17.2138 4.60822 16.9233C4.44081 16.6329 4.2 16.3915 3.90992 16.2235C3.03284 15.7162 2.39287 14.8816 2.13049 13.903C1.8681 12.9243 2.00474 11.8815 2.51042 11.0035L4.31267 7.87825C4.81997 7.00117 5.65454 6.3612 6.6332 6.09882C7.61186 5.83644 8.65465 5.97308 9.53267 6.47875C9.82316 6.64594 10.1525 6.73385 10.4877 6.73368C10.8228 6.73351 11.1521 6.64525 11.4424 6.47776C11.7327 6.31027 11.9739 6.06942 12.1418 5.77935C12.3098 5.48928 12.3985 5.16017 12.3992 4.825ZM21.3992 17.875C21.3992 18.7701 21.0436 19.6286 20.4107 20.2615C19.7777 20.8944 18.9193 21.25 18.0242 21.25C17.1291 21.25 16.2706 20.8944 15.6377 20.2615C15.0047 19.6286 14.6492 18.7701 14.6492 17.875C14.6492 16.9799 15.0047 16.1214 15.6377 15.4885C16.2706 14.8556 17.1291 14.5 18.0242 14.5C18.9193 14.5 19.7777 14.8556 20.4107 15.4885C21.0436 16.1214 21.3992 16.9799 21.3992 17.875ZM24.7742 17.875C24.7742 19.6652 24.063 21.3821 22.7971 22.648C21.5313 23.9138 19.8144 24.625 18.0242 24.625C16.234 24.625 14.5171 23.9138 13.2512 22.648C11.9853 21.3821 11.2742 19.6652 11.2742 17.875C11.2742 16.0848 11.9853 14.3679 13.2512 13.102C14.5171 11.8362 16.234 11.125 18.0242 11.125C19.8144 11.125 21.5313 11.8362 22.7971 13.102C24.063 14.3679 24.7742 16.0848 24.7742 17.875Z" fill="#E6E6E6"/>
</svg>
