<svg width="36" height="36" viewBox="0 0 36 36" fill="none" xmlns="http://www.w3.org/2000/svg">
<path d="M6.5 13.748C6.8674 13.7481 7.22201 13.883 7.49656 14.1271C7.77111 14.3713 7.94651 14.7077 7.9895 15.0725L8 15.248V16.748C7.99991 19.0766 8.90235 21.3146 10.5177 22.9917C12.133 24.6689 14.3356 25.6547 16.6625 25.742L17 25.748H22.379L21.1895 24.5585C20.9205 24.2886 20.7643 23.9264 20.7527 23.5455C20.741 23.1645 20.8748 22.7935 21.1269 22.5076C21.3789 22.2218 21.7303 22.0426 22.1097 22.0064C22.4891 21.9703 22.868 22.0799 23.1695 22.313L23.3105 22.4375L27.0605 26.1875C27.2859 26.4132 27.4336 26.7048 27.482 27.02L27.5 27.263C27.4968 27.5928 27.385 27.9122 27.182 28.172L27.0545 28.3145L23.3105 32.0585C23.0406 32.3276 22.6783 32.4838 22.2974 32.4954C21.9165 32.507 21.5454 32.3732 21.2596 32.1212C20.9737 31.8691 20.7945 31.5177 20.7584 31.1383C20.7223 30.7589 20.8319 30.38 21.065 30.0785L21.1895 29.9375L22.379 28.748H17C13.8824 28.748 10.8871 27.5346 8.64844 25.3648C6.40977 23.195 5.10343 20.2392 5.006 17.123L5 16.748V15.248C5 14.8502 5.15804 14.4687 5.43934 14.1874C5.72064 13.9061 6.10218 13.748 6.5 13.748ZM13.6895 4.43754C13.9594 4.16852 14.3217 4.01233 14.7026 4.0007C15.0835 3.98907 15.4546 4.12286 15.7404 4.37491C16.0263 4.62697 16.2055 4.97837 16.2416 5.35775C16.2777 5.73714 16.1681 6.11605 15.935 6.41754L15.8105 6.55854L14.621 7.74804H20C23.1176 7.74808 26.1129 8.96145 28.3516 11.1312C30.5902 13.301 31.8966 16.2569 31.994 19.373L32 19.748V21.248C31.9996 21.6304 31.8532 21.9981 31.5907 22.2761C31.3283 22.5541 30.9696 22.7214 30.5879 22.7438C30.2062 22.7662 29.8304 22.642 29.5373 22.3966C29.2441 22.1513 29.0557 21.8032 29.0105 21.4235L29 21.248V19.748C29.0001 17.4195 28.0977 15.1815 26.4823 13.5043C24.867 11.8272 22.6644 10.8414 20.3375 10.754L20 10.748H14.621L15.8105 11.9375C16.0795 12.2075 16.2357 12.5697 16.2473 12.9506C16.259 13.3315 16.1252 13.7026 15.8731 13.9885C15.6211 14.2743 15.2697 14.4535 14.8903 14.4896C14.5109 14.5258 14.132 14.4162 13.8305 14.183L13.6895 14.0585L9.9395 10.3085C9.68124 10.0503 9.52609 9.7066 9.50317 9.34206C9.48024 8.97752 9.59112 8.61715 9.815 8.32854L9.9395 8.18754L13.6895 4.43754Z" fill="#CF9AAC"/>
</svg>
