<svg width="40" height="40" viewBox="0 0 40 40" fill="none" xmlns="http://www.w3.org/2000/svg">
<path d="M9.96336 24.3666V2.016C9.96336 1.48579 9.75237 0.977295 9.37681 0.602381C9.00124 0.227466 8.49187 0.0168409 7.96074 0.0168409C7.42962 0.0168409 6.92024 0.227466 6.54468 0.602381C6.16912 0.977295 5.95813 1.48579 5.95813 2.016V24.3666C4.79831 24.7868 3.79622 25.5533 3.08806 26.562C2.3799 27.5706 2 28.7725 2 30.0042C2 31.2359 2.3799 32.4378 3.08806 33.4464C3.79622 34.4551 4.79831 35.2216 5.95813 35.6418V38.0008C5.95813 38.5311 6.16912 39.0395 6.54468 39.4145C6.92024 39.7894 7.42962 40 7.96074 40C8.49187 40 9.00124 39.7894 9.37681 39.4145C9.75237 39.0395 9.96336 38.5311 9.96336 38.0008V35.6418C11.1232 35.2216 12.1253 34.4551 12.8334 33.4464C13.5416 32.4378 13.9215 31.2359 13.9215 30.0042C13.9215 28.7725 13.5416 27.5706 12.8334 26.562C12.1253 25.5533 11.1232 24.7868 9.96336 24.3666ZM7.96074 32.0034C7.56466 32.0034 7.17748 31.8861 6.84815 31.6664C6.51882 31.4468 6.26214 31.1346 6.11057 30.7693C5.95899 30.404 5.91933 30.002 5.99661 29.6142C6.07388 29.2264 6.26461 28.8702 6.54468 28.5906C6.82475 28.311 7.18158 28.1206 7.57005 28.0435C7.95852 27.9663 8.36118 28.0059 8.72711 28.1572C9.09304 28.3085 9.40581 28.5648 9.62586 28.8935C9.84591 29.2223 9.96336 29.6088 9.96336 30.0042C9.96336 30.5344 9.75237 31.0429 9.37681 31.4178C9.00124 31.7927 8.49187 32.0034 7.96074 32.0034ZM38 22.0076C37.9965 20.7702 37.6097 19.5642 36.8927 18.5549C36.1756 17.5456 35.1634 16.7824 33.9948 16.37V2.016C33.9948 1.48579 33.7838 0.977295 33.4082 0.602381C33.0327 0.227466 32.5233 0.0168409 31.9921 0.0168409C31.461 0.0168409 30.9516 0.227466 30.5761 0.602381C30.2005 0.977295 29.9895 1.48579 29.9895 2.016V16.37C28.8297 16.7902 27.8276 17.5567 27.1195 18.5654C26.4113 19.574 26.0314 20.7759 26.0314 22.0076C26.0314 23.2393 26.4113 24.4411 27.1195 25.4498C27.8276 26.4584 28.8297 27.225 29.9895 27.6452V38.0008C29.9895 38.5311 30.2005 39.0395 30.5761 39.4145C30.9516 39.7894 31.461 40 31.9921 40C32.5233 40 33.0327 39.7894 33.4082 39.4145C33.7838 39.0395 33.9948 38.5311 33.9948 38.0008V27.6452C35.1634 27.2327 36.1756 26.4696 36.8927 25.4603C37.6097 24.4509 37.9965 23.2449 38 22.0076ZM31.9921 24.0067C31.5961 24.0067 31.2089 23.8895 30.8796 23.6698C30.5502 23.4501 30.2935 23.1379 30.142 22.7726C29.9904 22.4073 29.9507 22.0054 30.028 21.6176C30.1053 21.2298 30.296 20.8735 30.5761 20.594C30.8562 20.3144 31.213 20.124 31.6015 20.0468C31.9899 19.9697 32.3926 20.0093 32.7585 20.1606C33.1244 20.3119 33.4372 20.5681 33.6573 20.8969C33.8773 21.2257 33.9948 21.6122 33.9948 22.0076C33.9948 22.5378 33.7838 23.0463 33.4082 23.4212C33.0327 23.7961 32.5233 24.0067 31.9921 24.0067ZM25.9843 6.01431C25.9874 4.91408 25.6872 3.83419 25.1167 2.89283C24.5462 1.95148 23.7272 1.18494 22.7495 0.677097C21.7718 0.169257 20.673 -0.0603102 19.5733 0.0135204C18.4737 0.087351 17.4155 0.461734 16.5147 1.0957C15.6139 1.72966 14.9052 2.59877 14.4661 3.60791C14.0269 4.61705 13.8744 5.72734 14.025 6.81725C14.1757 7.90717 14.6237 8.93472 15.3202 9.78744C16.0167 10.6402 16.9347 11.2852 17.9738 11.6519V38.0008C17.9738 38.5311 18.1848 39.0395 18.5604 39.4145C18.9359 39.7894 19.4453 40 19.9764 40C20.5076 40 21.0169 39.7894 21.3925 39.4145C21.7681 39.0395 21.9791 38.5311 21.9791 38.0008V11.6519C23.1477 11.2395 24.1599 10.4763 24.877 9.46699C25.594 8.45769 25.9808 7.25168 25.9843 6.01431ZM19.9764 8.01347C19.5804 8.01347 19.1932 7.89622 18.8639 7.67655C18.5345 7.45688 18.2778 7.14466 18.1263 6.77936C17.9747 6.41406 17.935 6.0121 18.0123 5.6243C18.0896 5.2365 18.2803 4.88028 18.5604 4.6007C18.8405 4.32111 19.1973 4.13071 19.5858 4.05357C19.9742 3.97643 20.3769 4.01602 20.7428 4.16733C21.1087 4.31864 21.4215 4.57488 21.6416 4.90364C21.8616 5.2324 21.9791 5.61892 21.9791 6.01431C21.9791 6.54452 21.7681 7.05302 21.3925 7.42793C21.0169 7.80285 20.5076 8.01347 19.9764 8.01347Z" fill="#E6E6E6"/>
</svg>
