<svg width="40" height="40" viewBox="0 0 40 40" fill="none" xmlns="http://www.w3.org/2000/svg">
<g clip-path="url(#clip0_1186_73)">
<path d="M39.1523 30.9141L30.0039 21.7656C28.1992 19.9609 25.5039 19.6094 23.332 20.6797L15.0039 12.3516V7.5L5.00391 0L0.00390619 5L7.50391 15H12.3555L20.6836 23.3281C19.6211 25.5 19.9648 28.1953 21.7695 30L30.918 39.1484C32.0586 40.2891 33.9023 40.2891 35.0352 39.1484L39.1523 35.0312C40.2852 33.8906 40.2852 32.0469 39.1523 30.9141ZM25.918 17.5781C28.1289 17.5781 30.207 18.4375 31.7695 20L33.2852 21.5156C34.5195 20.9766 35.6914 20.2266 36.707 19.2109C39.6055 16.3125 40.5898 12.2344 39.668 8.53125C39.4961 7.82812 38.6133 7.58594 38.0977 8.10156L32.2852 13.9141L26.9805 13.0313L26.0977 7.72656L31.9102 1.91406C32.4258 1.39844 32.1758 0.515625 31.4648 0.335938C27.7617 -0.578125 23.6836 0.40625 20.793 3.29688C18.5664 5.52344 17.5195 8.46094 17.5742 11.3906L23.9883 17.8047C24.6211 17.6562 25.2773 17.5781 25.918 17.5781ZM17.8008 23.9844L13.3711 19.5547L1.46484 31.4687C-0.488281 33.4219 -0.488281 36.5859 1.46484 38.5391C3.41797 40.4922 6.58203 40.4922 8.53516 38.5391L18.1914 28.8828C17.5977 27.3281 17.418 25.6328 17.8008 23.9844ZM5.00391 36.875C3.97266 36.875 3.12891 36.0312 3.12891 35C3.12891 33.9609 3.96484 33.125 5.00391 33.125C6.04297 33.125 6.87891 33.9609 6.87891 35C6.87891 36.0312 6.04297 36.875 5.00391 36.875Z" fill="#E6E6E6"/>
</g>
<defs>
<clipPath id="clip0_1186_73">
<rect width="40" height="40" fill="white"/>
</clipPath>
</defs>
</svg>
